<svg width="70" height="58" viewBox="0 0 70 58" fill="none" xmlns="http://www.w3.org/2000/svg">
<path d="M26.856 20.862C27.12 20.862 27.354 20.964 27.558 21.168L29.466 23.238C28.41 24.546 27.108 25.548 25.56 26.244C24.024 26.94 22.176 27.288 20.016 27.288C18.084 27.288 16.344 26.958 14.796 26.298C13.26 25.638 11.946 24.72 10.854 23.544C9.76198 22.368 8.92198 20.964 8.33398 19.332C7.75798 17.7 7.46998 15.918 7.46998 13.986C7.46998 12.03 7.78198 10.242 8.40598 8.622C9.02998 6.99 9.90598 5.586 11.034 4.41C12.174 3.234 13.53 2.322 15.102 1.674C16.674 1.014 18.414 0.684 20.322 0.684C22.218 0.684 23.898 0.995999 25.362 1.62C26.838 2.244 28.092 3.06 29.124 4.068L27.504 6.318C27.408 6.462 27.282 6.588 27.126 6.696C26.982 6.804 26.778 6.858 26.514 6.858C26.334 6.858 26.148 6.81 25.956 6.714C25.764 6.606 25.554 6.48 25.326 6.336C25.098 6.18 24.834 6.012 24.534 5.832C24.234 5.652 23.886 5.49 23.49 5.346C23.094 5.19 22.632 5.064 22.104 4.968C21.588 4.86 20.988 4.806 20.304 4.806C19.14 4.806 18.072 5.016 17.1 5.436C16.14 5.844 15.312 6.444 14.616 7.236C13.92 8.016 13.38 8.976 12.996 10.116C12.612 11.244 12.42 12.534 12.42 13.986C12.42 15.45 12.624 16.752 13.032 17.892C13.452 19.032 14.016 19.992 14.724 20.772C15.432 21.552 16.266 22.152 17.226 22.572C18.186 22.98 19.218 23.184 20.322 23.184C20.982 23.184 21.576 23.148 22.104 23.076C22.644 23.004 23.136 22.89 23.58 22.734C24.036 22.578 24.462 22.38 24.858 22.14C25.266 21.888 25.668 21.582 26.064 21.222C26.184 21.114 26.31 21.03 26.442 20.97C26.574 20.898 26.712 20.862 26.856 20.862ZM61.0068 0.971998V27H56.7408V10.188C56.7408 9.516 56.7768 8.79 56.8488 8.01L48.9828 22.788C48.6108 23.496 48.0408 23.85 47.2728 23.85H46.5888C45.8208 23.85 45.2508 23.496 44.8788 22.788L36.9228 7.956C36.9588 8.352 36.9888 8.742 37.0128 9.126C37.0368 9.51 37.0488 9.864 37.0488 10.188V27H32.7828V0.971998H36.4368C36.6528 0.971998 36.8388 0.977998 36.9948 0.989999C37.1508 1.002 37.2888 1.032 37.4088 1.08C37.5408 1.128 37.6548 1.206 37.7508 1.314C37.8588 1.422 37.9608 1.566 38.0568 1.746L45.8508 16.2C46.0548 16.584 46.2408 16.98 46.4088 17.388C46.5888 17.796 46.7628 18.216 46.9308 18.648C47.0988 18.204 47.2728 17.778 47.4528 17.37C47.6328 16.95 47.8248 16.548 48.0288 16.164L55.7148 1.746C55.8108 1.566 55.9128 1.422 56.0208 1.314C56.1288 1.206 56.2428 1.128 56.3628 1.08C56.4948 1.032 56.6388 1.002 56.7948 0.989999C56.9508 0.977998 57.1368 0.971998 57.3528 0.971998H61.0068Z" fill="#FFF500"/>
<path d="M9.61356 54.632C9.6989 54.632 9.77356 54.6667 9.83756 54.736L10.4536 55.4C9.98423 55.944 9.41356 56.368 8.74156 56.672C8.0749 56.976 7.2669 57.128 6.31756 57.128C5.49623 57.128 4.74956 56.9867 4.07756 56.704C3.40556 56.416 2.83223 56.016 2.35756 55.504C1.8829 54.9867 1.5149 54.368 1.25356 53.648C0.992229 52.928 0.861563 52.136 0.861563 51.272C0.861563 50.408 0.997563 49.616 1.26956 48.896C1.54156 48.176 1.9229 47.5573 2.41356 47.04C2.90956 46.5227 3.50156 46.1227 4.18956 45.84C4.87756 45.552 5.63756 45.408 6.46956 45.408C7.28556 45.408 8.00556 45.5387 8.62956 45.8C9.25356 46.0613 9.8029 46.416 10.2776 46.864L9.76556 47.576C9.73356 47.6293 9.6909 47.6747 9.63756 47.712C9.58956 47.744 9.5229 47.76 9.43756 47.76C9.34156 47.76 9.22423 47.7093 9.08556 47.608C8.9469 47.5013 8.76556 47.384 8.54156 47.256C8.31756 47.128 8.03756 47.0133 7.70156 46.912C7.36556 46.8053 6.95223 46.752 6.46156 46.752C5.86956 46.752 5.32823 46.856 4.83756 47.064C4.3469 47.2667 3.9229 47.5627 3.56556 47.952C3.21356 48.3413 2.9389 48.816 2.74156 49.376C2.54423 49.936 2.44556 50.568 2.44556 51.272C2.44556 51.9867 2.5469 52.624 2.74956 53.184C2.95756 53.744 3.23756 54.2187 3.58956 54.608C3.9469 54.992 4.36556 55.2853 4.84556 55.488C5.3309 55.6907 5.85356 55.792 6.41356 55.792C6.7549 55.792 7.06156 55.7733 7.33356 55.736C7.6109 55.6933 7.86423 55.6293 8.09356 55.544C8.32823 55.4587 8.54423 55.352 8.74156 55.224C8.94423 55.0907 9.14423 54.9333 9.34156 54.752C9.43223 54.672 9.5229 54.632 9.61356 54.632ZM13.2222 50.52C13.4782 49.9653 13.7929 49.5333 14.1662 49.224C14.5395 48.9093 14.9955 48.752 15.5342 48.752C15.7049 48.752 15.8675 48.7707 16.0222 48.808C16.1822 48.8453 16.3235 48.904 16.4462 48.984L16.3422 50.048C16.3102 50.1813 16.2302 50.248 16.1022 50.248C16.0275 50.248 15.9182 50.232 15.7742 50.2C15.6302 50.168 15.4675 50.152 15.2862 50.152C15.0302 50.152 14.8009 50.1893 14.5982 50.264C14.4009 50.3387 14.2222 50.4507 14.0622 50.6C13.9075 50.744 13.7662 50.9253 13.6382 51.144C13.5155 51.3573 13.4035 51.6027 13.3022 51.88V57H11.8702V48.896H12.6862C12.8409 48.896 12.9475 48.9253 13.0062 48.984C13.0649 49.0427 13.1049 49.144 13.1262 49.288L13.2222 50.52ZM19.2023 48.896V57H17.7783V48.896H19.2023ZM19.5063 46.352C19.5063 46.4907 19.477 46.6213 19.4183 46.744C19.365 46.8613 19.2903 46.968 19.1943 47.064C19.1036 47.1547 18.9943 47.2267 18.8663 47.28C18.7436 47.3333 18.613 47.36 18.4743 47.36C18.3356 47.36 18.205 47.3333 18.0823 47.28C17.965 47.2267 17.861 47.1547 17.7703 47.064C17.6796 46.968 17.6076 46.8613 17.5543 46.744C17.501 46.6213 17.4743 46.4907 17.4743 46.352C17.4743 46.2133 17.501 46.0827 17.5543 45.96C17.6076 45.832 17.6796 45.7227 17.7703 45.632C17.861 45.536 17.965 45.4613 18.0823 45.408C18.205 45.3547 18.3356 45.328 18.4743 45.328C18.613 45.328 18.7436 45.3547 18.8663 45.408C18.9943 45.4613 19.1036 45.536 19.1943 45.632C19.2903 45.7227 19.365 45.832 19.4183 45.96C19.477 46.0827 19.5063 46.2133 19.5063 46.352ZM25.9341 53.352C25.2781 53.3733 24.7181 53.4267 24.2541 53.512C23.7954 53.592 23.4194 53.6987 23.1261 53.832C22.8381 53.9653 22.6274 54.1227 22.4941 54.304C22.3661 54.4853 22.3021 54.688 22.3021 54.912C22.3021 55.1253 22.3367 55.3093 22.4061 55.464C22.4754 55.6187 22.5687 55.7467 22.6861 55.848C22.8087 55.944 22.9501 56.016 23.1101 56.064C23.2754 56.1067 23.4514 56.128 23.6381 56.128C23.8887 56.128 24.1181 56.104 24.3261 56.056C24.5341 56.0027 24.7287 55.928 24.9101 55.832C25.0967 55.736 25.2727 55.6213 25.4381 55.488C25.6087 55.3547 25.7741 55.2027 25.9341 55.032V53.352ZM21.3341 50.04C21.7821 49.608 22.2647 49.2853 22.7821 49.072C23.2994 48.8587 23.8727 48.752 24.5021 48.752C24.9554 48.752 25.3581 48.8267 25.7101 48.976C26.0621 49.1253 26.3581 49.3333 26.5981 49.6C26.8381 49.8667 27.0194 50.1893 27.1421 50.568C27.2647 50.9467 27.3261 51.3627 27.3261 51.816V57H26.6941C26.5554 57 26.4487 56.9787 26.3741 56.936C26.2994 56.888 26.2407 56.7973 26.1981 56.664L26.0381 55.896C25.8247 56.0933 25.6167 56.2693 25.4141 56.424C25.2114 56.5733 24.9981 56.7013 24.7741 56.808C24.5501 56.9093 24.3101 56.9867 24.0541 57.04C23.8034 57.0987 23.5234 57.128 23.2141 57.128C22.8994 57.128 22.6034 57.0853 22.3261 57C22.0487 56.9093 21.8061 56.776 21.5981 56.6C21.3954 56.424 21.2327 56.2027 21.1101 55.936C20.9927 55.664 20.9341 55.344 20.9341 54.976C20.9341 54.656 21.0221 54.3493 21.1981 54.056C21.3741 53.7573 21.6594 53.4933 22.0541 53.264C22.4487 53.0347 22.9634 52.848 23.5981 52.704C24.2327 52.5547 25.0114 52.4693 25.9341 52.448V51.816C25.9341 51.1867 25.7981 50.712 25.5261 50.392C25.2541 50.0667 24.8567 49.904 24.3341 49.904C23.9821 49.904 23.6861 49.9493 23.4461 50.04C23.2114 50.1253 23.0061 50.224 22.8301 50.336C22.6594 50.4427 22.5101 50.5413 22.3821 50.632C22.2594 50.7173 22.1367 50.76 22.0141 50.76C21.9181 50.76 21.8354 50.736 21.7661 50.688C21.6967 50.6347 21.6381 50.5707 21.5901 50.496L21.3341 50.04ZM34.7752 50.824C34.5085 50.4667 34.2205 50.2187 33.9112 50.08C33.6019 49.936 33.2552 49.864 32.8712 49.864C32.1192 49.864 31.5405 50.1333 31.1352 50.672C30.7299 51.2107 30.5272 51.9787 30.5272 52.976C30.5272 53.504 30.5725 53.9573 30.6632 54.336C30.7539 54.7093 30.8872 55.0187 31.0632 55.264C31.2392 55.504 31.4552 55.68 31.7112 55.792C31.9672 55.904 32.2579 55.96 32.5832 55.96C33.0525 55.96 33.4605 55.8533 33.8072 55.64C34.1592 55.4267 34.4819 55.1253 34.7752 54.736V50.824ZM36.1992 45.216V57H35.3512C35.1485 57 35.0205 56.9013 34.9672 56.704L34.8392 55.72C34.4925 56.136 34.0979 56.472 33.6552 56.728C33.2125 56.984 32.7005 57.112 32.1192 57.112C31.6552 57.112 31.2339 57.024 30.8552 56.848C30.4765 56.6667 30.1539 56.4027 29.8872 56.056C29.6205 55.7093 29.4152 55.2773 29.2712 54.76C29.1272 54.2427 29.0552 53.648 29.0552 52.976C29.0552 52.3787 29.1352 51.824 29.2952 51.312C29.4552 50.7947 29.6845 50.3467 29.9832 49.968C30.2819 49.5893 30.6472 49.2933 31.0792 49.08C31.5165 48.8613 32.0072 48.752 32.5512 48.752C33.0472 48.752 33.4712 48.8373 33.8232 49.008C34.1805 49.1733 34.4979 49.4053 34.7752 49.704V45.216H36.1992ZM41.8643 48.768C42.4563 48.768 42.9896 48.8667 43.4643 49.064C43.939 49.2613 44.3443 49.5413 44.6803 49.904C45.0163 50.2667 45.2723 50.7067 45.4483 51.224C45.6296 51.736 45.7203 52.3093 45.7203 52.944C45.7203 53.584 45.6296 54.16 45.4483 54.672C45.2723 55.184 45.0163 55.6213 44.6803 55.984C44.3443 56.3467 43.939 56.6267 43.4643 56.824C42.9896 57.016 42.4563 57.112 41.8643 57.112C41.267 57.112 40.7283 57.016 40.2483 56.824C39.7736 56.6267 39.3683 56.3467 39.0323 55.984C38.6963 55.6213 38.4376 55.184 38.2563 54.672C38.0803 54.16 37.9923 53.584 37.9923 52.944C37.9923 52.3093 38.0803 51.736 38.2563 51.224C38.4376 50.7067 38.6963 50.2667 39.0323 49.904C39.3683 49.5413 39.7736 49.2613 40.2483 49.064C40.7283 48.8667 41.267 48.768 41.8643 48.768ZM41.8643 56C42.6643 56 43.2616 55.7333 43.6563 55.2C44.051 54.6613 44.2483 53.912 44.2483 52.952C44.2483 51.9867 44.051 51.2347 43.6563 50.696C43.2616 50.1573 42.6643 49.888 41.8643 49.888C41.459 49.888 41.1043 49.9573 40.8003 50.096C40.5016 50.2347 40.251 50.4347 40.0483 50.696C39.851 50.9573 39.7016 51.28 39.6003 51.664C39.5043 52.0427 39.4563 52.472 39.4563 52.952C39.4563 53.912 39.6536 54.6613 40.0483 55.2C40.4483 55.7333 41.0536 56 41.8643 56ZM54.1904 48.896V57H53.3424C53.1398 57 53.0118 56.9013 52.9584 56.704L52.8464 55.832C52.4944 56.2213 52.0998 56.536 51.6624 56.776C51.2251 57.0107 50.7238 57.128 50.1584 57.128C49.7158 57.128 49.3238 57.056 48.9824 56.912C48.6464 56.7627 48.3638 56.5547 48.1344 56.288C47.9051 56.0213 47.7318 55.6987 47.6144 55.32C47.5024 54.9413 47.4464 54.5227 47.4464 54.064V48.896H48.8704V54.064C48.8704 54.6773 49.0091 55.152 49.2864 55.488C49.5691 55.824 49.9984 55.992 50.5744 55.992C50.9958 55.992 51.3878 55.8933 51.7504 55.696C52.1184 55.4933 52.4571 55.216 52.7664 54.864V48.896H54.1904ZM57.8003 50.52C58.0563 49.9653 58.371 49.5333 58.7443 49.224C59.1176 48.9093 59.5736 48.752 60.1123 48.752C60.283 48.752 60.4456 48.7707 60.6003 48.808C60.7603 48.8453 60.9016 48.904 61.0243 48.984L60.9203 50.048C60.8883 50.1813 60.8083 50.248 60.6803 50.248C60.6056 50.248 60.4963 50.232 60.3523 50.2C60.2083 50.168 60.0456 50.152 59.8643 50.152C59.6083 50.152 59.379 50.1893 59.1763 50.264C58.979 50.3387 58.8003 50.4507 58.6403 50.6C58.4856 50.744 58.3443 50.9253 58.2163 51.144C58.0936 51.3573 57.9816 51.6027 57.8803 51.88V57H56.4483V48.896H57.2643C57.419 48.896 57.5256 48.9253 57.5843 48.984C57.643 49.0427 57.683 49.144 57.7043 49.288L57.8003 50.52ZM65.3643 48.768C65.9563 48.768 66.4896 48.8667 66.9643 49.064C67.439 49.2613 67.8443 49.5413 68.1803 49.904C68.5163 50.2667 68.7723 50.7067 68.9483 51.224C69.1296 51.736 69.2203 52.3093 69.2203 52.944C69.2203 53.584 69.1296 54.16 68.9483 54.672C68.7723 55.184 68.5163 55.6213 68.1803 55.984C67.8443 56.3467 67.439 56.6267 66.9643 56.824C66.4896 57.016 65.9563 57.112 65.3643 57.112C64.767 57.112 64.2283 57.016 63.7483 56.824C63.2736 56.6267 62.8683 56.3467 62.5323 55.984C62.1963 55.6213 61.9376 55.184 61.7563 54.672C61.5803 54.16 61.4923 53.584 61.4923 52.944C61.4923 52.3093 61.5803 51.736 61.7563 51.224C61.9376 50.7067 62.1963 50.2667 62.5323 49.904C62.8683 49.5413 63.2736 49.2613 63.7483 49.064C64.2283 48.8667 64.767 48.768 65.3643 48.768ZM65.3643 56C66.1643 56 66.7616 55.7333 67.1563 55.2C67.551 54.6613 67.7483 53.912 67.7483 52.952C67.7483 51.9867 67.551 51.2347 67.1563 50.696C66.7616 50.1573 66.1643 49.888 65.3643 49.888C64.959 49.888 64.6043 49.9573 64.3003 50.096C64.0016 50.2347 63.751 50.4347 63.5483 50.696C63.351 50.9573 63.2016 51.28 63.1003 51.664C63.0043 52.0427 62.9563 52.472 62.9563 52.952C62.9563 53.912 63.1536 54.6613 63.5483 55.2C63.9483 55.7333 64.5536 56 65.3643 56Z" fill="white"/>
<path d="M6.08398 36.18H63.9048V37.962H6.08398V36.18Z" fill="#FFF500"/>
</svg>
